<?xml version="1.0" standalone="no"?>
<!DOCTYPE svg PUBLIC "-//W3C//DTD SVG 20010904//EN"
 "http://www.w3.org/TR/2001/REC-SVG-20010904/DTD/svg10.dtd">
<svg version="1.0" xmlns="http://www.w3.org/2000/svg"
 width="852.000000pt" height="838.000000pt" viewBox="0 0 852.000000 838.000000"
 preserveAspectRatio="xMidYMid meet">

<g transform="translate(0.000000,838.000000) scale(0.100000,-0.100000)"
fill="#000000" stroke="none">
<path d="M7000 8218 c0 -17 -53 -18 -965 -18 -851 0 -965 -2 -965 -15 0 -18 2
-18 -50 0 -58 20 -183 29 -255 17 -154 -26 -257 -94 -316 -208 l-37 -71 -11
53 c-21 94 -81 156 -188 197 -57 21 -69 22 -634 24 -317 2 -619 6 -670 9 -112
7 -206 -11 -286 -56 l-51 -29 -59 29 c-32 16 -87 34 -123 39 -42 7 -394 11
-992 11 l-928 0 0 -199 c0 -182 2 -200 18 -204 16 -4 16 -5 0 -6 -17 -1 -18
-18 -18 -206 l0 -205 300 0 c174 0 320 4 349 11 27 6 74 25 105 44 l55 33 37
-25 c113 -77 308 -91 442 -33 l42 19 0 -25 0 -24 430 0 c388 0 430 2 430 16 0
10 6 14 14 11 48 -18 110 -29 171 -30 39 0 406 0 818 1 l747 2 0 142 c0 138
-1 143 -25 168 -25 26 -25 26 -7 61 l18 36 11 -67 c20 -127 92 -240 186 -290
29 -15 51 -38 69 -69 14 -25 43 -67 64 -93 l39 -48 208 0 207 0 0 129 c0 160
6 169 77 115 66 -50 123 -73 215 -85 89 -12 184 -1 256 31 l42 19 0 -25 0 -24
868 0 868 0 19 -32 20 -33 3 33 3 32 90 0 89 0 0 410 0 410 -355 0 c-327 0
-355 1 -364 18 -10 16 -10 16 -11 0z m-5903 -177 c67 -31 90 -100 59 -176 -8
-19 -29 -43 -46 -53 l-31 -19 29 -6 c16 -3 43 -18 61 -32 27 -24 31 -33 31
-78 0 -62 -25 -108 -72 -134 -28 -15 -68 -18 -275 -21 l-243 -4 0 75 c0 72 1
75 25 81 l26 7 -3 117 c-3 113 -4 117 -25 120 -21 3 -23 8 -23 73 l0 69 223 0
c196 0 227 -3 264 -19z m423 -55 c0 -66 -2 -75 -20 -81 -17 -6 -20 -15 -20
-74 0 -37 5 -82 10 -98 20 -55 98 -71 147 -29 26 22 28 31 32 110 3 85 3 85
-23 92 -25 6 -26 9 -26 80 l0 74 125 0 125 0 0 -74 c0 -64 -3 -75 -19 -81 -16
-5 -19 -18 -23 -103 -3 -82 -8 -107 -32 -155 -48 -98 -116 -132 -250 -125 -91
5 -141 26 -193 80 -46 47 -63 105 -63 209 0 86 -1 89 -25 95 -24 6 -25 10 -25
80 l0 74 140 0 140 0 0 -74z m817 64 c86 -11 143 -38 163 -76 9 -15 15 -53 15
-87 -1 -55 -3 -61 -36 -91 -19 -17 -43 -36 -53 -41 -16 -9 -12 -18 38 -83 47
-60 56 -79 56 -112 l0 -40 -110 0 -109 0 -17 33 c-10 17 -27 59 -39 92 -11 33
-25 61 -30 63 -6 1 -11 -38 -13 -93 l-3 -95 -129 0 -130 0 0 74 c0 70 1 74 25
80 25 6 25 7 25 116 0 109 0 110 -25 116 -24 6 -25 10 -25 80 l0 74 163 0 c89
0 195 -5 234 -10z m711 -14 l42 -18 0 -74 0 -74 -54 0 c-30 0 -58 5 -62 11 -3
6 -21 17 -40 25 -89 37 -172 -70 -131 -168 21 -50 48 -62 130 -59 22 1 27 6
27 26 0 22 -4 25 -35 25 -35 0 -35 0 -35 45 l0 45 105 0 106 0 -3 -127 -3
-126 -55 -20 c-43 -16 -81 -21 -170 -21 -133 -1 -172 13 -232 84 -44 51 -58
98 -58 197 0 64 5 88 23 123 27 51 78 96 133 116 56 20 254 14 312 -10z m582
-66 c0 -86 -1 -90 -22 -90 -12 0 -40 9 -62 19 -23 11 -58 23 -78 26 l-38 7 0
-51 c0 -56 5 -60 68 -42 l32 10 0 -59 0 -58 -37 9 c-62 14 -63 13 -63 -42 l0
-52 36 6 c20 3 55 15 78 27 23 11 52 20 64 20 21 0 22 -4 22 -90 l0 -90 -235
0 -235 0 0 74 c0 70 1 74 25 80 25 6 25 7 25 116 0 109 0 110 -25 116 -24 6
-25 10 -25 80 l0 74 235 0 235 0 0 -90z m448 80 c91 -10 152 -37 173 -77 19
-36 17 -125 -5 -157 -9 -15 -33 -37 -52 -48 -34 -20 -35 -21 -18 -47 9 -14 34
-47 56 -72 30 -38 38 -55 38 -88 l0 -41 -110 0 -110 0 -23 48 c-14 26 -32 71
-41 100 -10 28 -22 50 -27 46 -5 -3 -9 -48 -9 -100 l0 -94 -130 0 -130 0 0 74
c0 70 1 74 25 80 25 6 25 7 25 116 0 109 0 110 -25 116 -24 6 -25 10 -25 80
l0 74 153 0 c83 0 189 -4 235 -10z m911 -7 c65 -21 133 -80 156 -135 25 -61
24 -180 -2 -239 -23 -52 -72 -101 -122 -125 -20 -9 -38 -18 -40 -20 -2 -2 10
-22 27 -43 24 -30 32 -50 32 -80 l0 -41 -104 0 -104 0 -24 37 c-13 21 -30 55
-39 77 -17 42 -20 44 -82 72 -91 40 -139 125 -140 243 -1 128 56 215 165 252
69 24 207 25 277 2z m511 -57 c0 -71 -1 -74 -26 -80 -26 -7 -26 -7 -23 -92 4
-79 6 -88 32 -110 37 -32 87 -32 124 0 26 22 28 31 32 110 3 85 3 85 -23 92
-25 6 -26 9 -26 80 l0 74 125 0 125 0 0 -74 c0 -64 -3 -75 -19 -81 -16 -5 -19
-18 -23 -103 -3 -82 -8 -107 -32 -155 -48 -98 -116 -132 -250 -125 -96 5 -147
28 -198 88 -45 52 -58 98 -58 203 0 84 -1 87 -25 93 -24 6 -25 10 -25 80 l0
74 145 0 145 0 0 -74z m870 -16 c0 -102 -3 -105 -74 -70 -23 10 -60 22 -83 26
l-43 7 0 -52 c0 -57 3 -58 73 -42 l37 9 0 -58 0 -58 -37 9 c-70 16 -73 15 -73
-42 l0 -52 41 7 c22 4 58 15 80 26 21 11 47 20 59 20 19 0 20 -6 20 -90 l0
-90 -230 0 -230 0 0 74 c0 70 1 74 25 80 25 6 25 7 25 116 0 109 0 110 -25
116 -24 6 -25 10 -25 80 l0 74 230 0 230 0 0 -90z m530 0 c0 -84 -1 -90 -20
-90 -12 0 -38 9 -59 20 -22 11 -58 22 -80 26 l-41 7 0 -52 c0 -56 5 -60 68
-42 l32 10 0 -59 0 -59 -32 10 c-63 18 -68 14 -68 -42 l0 -52 36 6 c20 3 55
15 78 27 23 11 52 20 64 20 21 0 22 -4 22 -90 l0 -90 -230 0 -230 0 0 74 c0
65 2 74 20 79 18 5 20 14 20 115 0 102 -2 111 -20 117 -18 6 -20 15 -20 81 l0
74 230 0 230 0 0 -90z m408 -40 c46 -71 88 -132 93 -136 5 -3 9 19 9 50 0 46
-3 56 -20 61 -18 6 -20 15 -20 81 l0 74 105 0 105 0 0 -74 c0 -66 -2 -75 -20
-81 -18 -6 -20 -15 -20 -115 0 -100 2 -109 20 -115 18 -6 20 -15 20 -81 l0
-74 -129 0 -129 0 -88 130 c-48 72 -92 130 -96 130 -4 0 -8 -22 -8 -50 0 -45
3 -50 25 -56 24 -6 25 -10 25 -80 l0 -74 -110 0 -110 0 0 74 c0 70 1 74 25 80
25 6 25 7 25 116 0 109 0 110 -25 116 -24 6 -25 10 -25 80 l0 74 133 0 132 0
83 -130z"/>
<path d="M870 7884 l0 -55 47 3 c39 2 50 8 62 29 13 24 13 29 -2 53 -15 22
-25 26 -62 26 l-45 0 0 -56z"/>
<path d="M870 7710 c0 -58 10 -66 66 -56 44 9 63 43 46 81 -10 22 -18 25 -62
25 l-50 0 0 -50z"/>
<path d="M2202 7878 l3 -63 33 2 c44 2 62 19 62 59 0 42 -23 64 -66 64 l-35 0
3 -62z"/>
<path d="M3950 7874 l0 -67 37 6 c43 7 63 29 63 67 0 35 -29 60 -68 60 l-32 0
0 -66z"/>
<path d="M4803 7898 c-51 -25 -57 -154 -8 -195 56 -48 140 -16 152 59 8 52 -4
105 -29 128 -24 22 -78 26 -115 8z m74 -92 c-4 -10 -1 -14 11 -10 9 2 2 -3
-16 -11 -26 -12 -37 -13 -48 -4 -19 16 0 39 33 39 18 0 24 -4 20 -14z"/>
<path d="M3435 7068 c-84 -43 -184 -146 -224 -231 -95 -204 -59 -434 94 -592
67 -70 127 -108 218 -139 l62 -21 12 -135 c22 -268 33 -387 44 -485 6 -55 17
-172 24 -260 8 -88 21 -241 29 -340 9 -99 20 -214 25 -255 5 -41 13 -121 16
-177 l7 -102 -34 9 c-103 28 -449 39 -649 21 -105 -10 -299 -44 -322 -58 -7
-3 -9 -2 -5 2 5 5 117 53 250 107 134 54 254 106 267 116 44 33 64 69 69 125
7 87 -39 157 -123 184 l-30 10 -57 274 c-31 151 -70 336 -86 413 l-29 138 48
48 c88 88 99 212 28 308 -69 94 -218 121 -311 56 -67 -47 -101 -103 -106 -174
-6 -75 15 -133 64 -184 l36 -37 -27 -77 c-15 -42 -31 -87 -36 -100 l-9 -22
-48 35 c-101 72 -261 126 -374 125 -82 -1 -199 -28 -278 -65 -87 -41 -80 -42
-154 23 -35 31 -37 35 -27 64 25 72 8 155 -45 216 -49 58 -104 84 -173 84
-120 1 -214 -76 -236 -195 -16 -82 40 -201 110 -234 32 -15 35 -21 35 -57 0
-23 -3 -57 -6 -77 -6 -33 -10 -37 -54 -48 -221 -57 -407 -253 -457 -485 -9
-42 -19 -76 -22 -76 -4 0 -46 19 -94 43 l-88 43 -3 59 c-6 135 -102 228 -236
228 -69 0 -125 -27 -174 -85 -43 -50 -60 -106 -53 -170 16 -129 109 -208 248
-208 l54 0 104 -168 c58 -92 158 -252 224 -356 l119 -188 -18 -39 c-21 -48
-21 -116 0 -157 36 -70 123 -112 194 -92 21 5 234 89 472 185 392 158 493 196
412 154 -44 -23 -190 -124 -274 -190 -101 -80 -259 -235 -333 -329 -33 -41
-63 -77 -66 -80 -18 -13 -100 -137 -165 -249 -21 -36 -108 -208 -124 -246 -5
-11 -18 -41 -29 -67 -12 -26 -21 -53 -21 -60 0 -7 -6 -25 -14 -40 -8 -15 -17
-42 -21 -60 -4 -18 -12 -51 -20 -73 -47 -145 -79 -367 -79 -555 -1 -152 1
-168 22 -210 38 -76 48 -91 92 -135 l43 -44 -41 -47 c-172 -194 -158 -505 30
-695 l57 -58 -24 -20 c-61 -48 -155 -189 -155 -233 0 -8 -6 -20 -12 -26 -19
-19 -17 -236 1 -282 65 -165 150 -264 278 -325 l52 -25 2723 2 2723 3 45 23
c139 72 210 135 284 250 78 122 96 196 121 492 7 91 18 212 24 270 13 120 25
250 46 500 8 96 17 191 20 210 3 19 12 116 20 215 17 213 31 363 46 499 6 54
17 175 25 270 15 185 28 331 45 496 6 58 17 182 25 275 13 169 24 284 45 485
6 58 17 182 25 275 16 197 28 329 49 545 8 85 20 205 25 265 16 189 30 345 45
495 8 80 17 181 20 225 9 135 28 279 37 292 5 6 24 15 41 18 88 19 198 94 264
180 83 108 118 218 110 349 -5 87 -13 118 -58 211 -42 89 -144 188 -240 233
l-45 22 -2140 0 -2139 -1 -60 -31z m4293 -176 c57 -31 125 -99 152 -154 34
-67 38 -163 10 -239 -33 -86 -108 -160 -193 -188 l-63 -21 -2014 2 -2015 3
-47 22 c-63 29 -128 91 -158 150 -21 40 -25 62 -25 138 0 75 4 98 23 135 41
77 108 137 191 166 29 11 423 13 2066 11 l2030 -2 43 -23z m-258 -844 c-1 -18
-7 -107 -15 -198 -8 -91 -21 -241 -29 -335 -9 -93 -18 -186 -21 -205 -3 -19
-12 -116 -20 -215 -24 -296 -34 -405 -46 -504 -6 -52 -17 -171 -25 -265 -7
-94 -23 -272 -34 -396 -12 -124 -27 -295 -35 -380 -27 -300 -36 -396 -46 -500
-6 -58 -16 -175 -24 -260 -7 -85 -18 -207 -24 -270 -23 -237 -41 -434 -70
-770 -7 -69 -16 -172 -22 -230 -5 -58 -16 -177 -24 -265 -8 -88 -19 -207 -24
-265 -6 -58 -15 -157 -21 -220 -14 -162 -30 -273 -39 -285 -5 -5 -12 -21 -16
-35 -9 -29 -52 -93 -86 -130 -45 -47 -134 -98 -210 -119 -72 -20 -96 -21 -582
-21 l-507 0 35 62 c42 78 57 131 62 232 8 139 -46 283 -145 384 l-52 54 54 59
c95 106 135 202 143 343 7 127 -36 256 -121 359 l-35 43 38 37 c46 44 82 103
105 174 29 89 12 377 -34 588 -35 155 -83 307 -144 450 -55 131 -185 363 -208
373 -5 2 -8 8 -8 14 0 10 -50 80 -86 121 -6 7 -18 24 -28 39 -21 32 -68 58
-105 58 -15 0 -42 -13 -61 -29 -31 -26 -35 -34 -35 -77 0 -44 6 -56 51 -114
274 -349 427 -750 450 -1181 9 -174 2 -212 -48 -260 -23 -21 -55 -41 -72 -44
-17 -3 -929 -4 -2027 -3 l-1996 3 -36 28 c-75 57 -91 136 -67 332 39 320 89
497 210 745 23 47 47 94 53 104 139 227 210 320 363 471 128 127 182 171 334
272 19 12 40 26 45 30 40 29 252 134 335 166 180 69 285 97 465 128 96 16 407
22 535 10 181 -16 404 -69 537 -127 17 -8 34 -14 38 -14 14 0 171 -75 275
-132 43 -23 162 -104 240 -162 105 -80 140 -84 199 -25 48 48 38 113 -25 161
-16 12 -33 28 -37 35 -4 7 -15 13 -22 13 -8 0 -15 4 -15 8 0 10 -77 62 -91 62
-5 0 -9 5 -9 10 0 6 -8 14 -17 17 -10 4 -43 23 -74 43 -83 54 -261 140 -394
190 -33 13 -74 29 -92 36 -17 8 -38 14 -46 14 -8 0 -17 10 -20 23 -7 28 -26
231 -62 652 -8 94 -17 186 -20 205 -3 20 -13 114 -21 210 -29 361 -43 507 -53
590 -6 46 -11 92 -11 102 0 17 84 18 1835 18 l1835 0 0 -32z m-4504 -82 c51
-59 36 -138 -34 -179 -42 -25 -90 -16 -131 22 -26 24 -31 36 -31 76 0 40 5 52
35 82 33 33 38 35 87 31 40 -4 57 -12 74 -32z m-1340 -122 c41 -20 64 -59 64
-110 0 -28 -8 -44 -34 -70 -29 -29 -41 -34 -79 -34 -51 0 -88 24 -107 69 -23
57 2 114 65 149 28 16 52 15 91 -4z m1254 -202 c0 -5 38 -190 84 -413 47 -222
82 -407 78 -410 -4 -3 -173 -73 -375 -154 -396 -159 -404 -164 -379 -220 23
-50 39 -46 449 120 213 86 398 157 410 157 13 0 30 -5 38 -12 20 -17 19 -63
-2 -82 -18 -15 -1949 -797 -1990 -806 -24 -4 -63 28 -63 53 0 37 61 67 429
215 415 167 430 175 400 229 -9 17 -25 27 -43 29 -19 3 -148 -45 -393 -144
-204 -82 -368 -143 -372 -138 -7 8 -253 397 -400 632 -28 45 -47 82 -42 82 5
0 170 -79 366 -175 197 -96 365 -175 375 -175 10 0 27 8 38 18 21 17 29 85
113 942 l11 115 54 21 53 21 28 -27 c15 -15 194 -168 396 -339 377 -318 404
-336 435 -298 9 10 86 216 255 679 18 49 35 88 40 88 4 0 7 -4 7 -8z m-440
-153 c64 -27 112 -56 158 -96 l32 -28 -61 -160 c-33 -88 -61 -161 -63 -162 -1
-1 -101 81 -222 183 -120 103 -232 197 -248 211 -16 13 -26 27 -22 30 3 4 37
17 74 30 59 21 81 23 182 20 92 -4 126 -9 170 -28z m-984 -291 c-3 -24 -17
-169 -32 -323 -15 -154 -28 -281 -29 -283 -1 -1 -73 32 -159 74 -173 84 -165
74 -146 175 23 119 106 249 208 322 43 31 135 76 156 77 4 0 6 -19 2 -42z
m-882 -152 c53 -22 79 -63 73 -116 -7 -62 -50 -100 -113 -100 -39 0 -51 5 -80
34 -26 26 -34 42 -34 70 0 50 23 90 62 109 41 20 50 21 92 3z m4619 -3412 c82
-25 102 -36 148 -84 65 -67 83 -114 84 -215 0 -76 -4 -97 -25 -138 -30 -59
-95 -120 -158 -150 l-47 -22 -889 -5 -888 -5 -29 -35 c-32 -38 -35 -56 -16
-103 28 -66 -38 -62 936 -67 l886 -5 47 -22 c63 -29 128 -91 158 -150 21 -40
25 -62 25 -138 0 -75 -4 -98 -24 -137 -31 -61 -77 -107 -143 -143 l-53 -30
-1885 -3 -1885 -2 -59 22 c-81 30 -154 104 -186 187 -60 160 29 344 193 399
63 22 70 22 886 22 l823 0 28 28 c16 16 32 46 35 66 6 32 3 42 -22 74 l-30 37
-844 5 -844 5 -58 29 c-91 44 -133 93 -168 194 -10 30 -19 69 -19 87 0 58 40
152 85 203 43 47 116 92 151 92 10 0 26 5 34 10 10 6 685 10 1858 10 1659 0
1848 -2 1895 -16z"/>
<path d="M4530 5717 c-43 -33 -50 -59 -50 -173 0 -98 3 -115 21 -138 49 -62
110 -68 168 -17 29 26 33 36 38 98 9 108 -3 177 -37 213 -24 26 -35 30 -77 30
-26 0 -55 -6 -63 -13z"/>
<path d="M6612 5705 l-32 -27 0 -133 0 -133 31 -26 c42 -36 72 -41 114 -22 61
29 67 49 63 190 -4 149 -13 166 -95 173 -42 5 -53 1 -81 -22z"/>
<path d="M5420 5628 c-36 -12 -66 -25 -68 -29 -2 -5 -10 -9 -17 -9 -16 0 -95
-80 -95 -97 0 -6 -4 -13 -10 -15 -17 -6 -32 -120 -27 -204 12 -178 117 -328
282 -404 42 -20 67 -24 151 -24 97 0 105 1 175 36 158 79 252 223 266 409 7
97 -19 185 -75 245 -83 90 -160 114 -366 113 -124 0 -163 -4 -216 -21z"/>
<path d="M2182 3254 c-12 -8 -29 -32 -38 -52 -18 -44 -7 -79 40 -130 51 -55
108 -77 201 -76 96 0 154 23 214 83 36 36 41 47 41 87 0 37 -5 51 -29 75 -42
42 -91 40 -155 -6 -27 -19 -59 -35 -70 -35 -12 0 -41 16 -65 35 -49 39 -100
46 -139 19z"/>
<path d="M4004 3252 c-60 -50 -58 -124 4 -175 12 -10 28 -24 35 -31 7 -8 43
-24 80 -36 126 -43 250 -8 324 92 34 47 31 92 -11 134 -28 28 -42 34 -75 34
-27 0 -48 -7 -60 -19 -22 -22 -74 -51 -92 -51 -6 0 -34 16 -60 35 -56 40 -110
46 -145 17z"/>
<path d="M3030 3137 c-41 -19 -59 -48 -60 -95 0 -38 5 -48 49 -92 94 -94 221
-134 353 -110 80 14 119 32 193 88 63 48 84 100 61 155 -16 41 -72 73 -109 63
-13 -3 -46 -23 -73 -45 -91 -72 -198 -75 -274 -7 -64 57 -92 66 -140 43z"/>
<path d="M1847 5012 c-23 -26 -107 -231 -107 -262 0 -15 6 -32 13 -38 6 -5 67
-33 134 -61 98 -41 126 -49 146 -42 18 7 36 36 75 129 56 130 62 161 35 184
-24 20 -235 108 -260 108 -11 0 -27 -8 -36 -18z m135 -150 l37 -17 -20 -45
c-11 -24 -21 -46 -23 -47 -2 -2 -24 6 -49 17 l-46 20 16 38 c25 61 25 61 85
34z"/>
<path d="M2081 4426 c-21 -25 -9 -79 20 -95 24 -13 29 -13 53 2 33 22 37 80 7
97 -28 14 -67 12 -80 -4z"/>
</g>
</svg>
